<?xml version="1.0" encoding="UTF-8"?><svg id="Layer_1" xmlns="http://www.w3.org/2000/svg" viewBox="0 0 1200 1200"><defs><style>.cls-1{fill-rule:evenodd;}.cls-1,.cls-2{fill:#fced1e;}</style></defs><path class="cls-1" d="M928.91,802.69c47.76,18.06,101.11-6,119.17-53.76,18.05-47.71-6.02-101.06-53.79-119.13-47.76-18.06-101.11,6-119.16,53.72-18.06,47.76,6,101.11,53.77,119.17Z"/><path class="cls-1" d="M1043.88,494.59c30.97,11.71,65.76-3.99,77.46-34.9,11.71-30.96-3.99-65.76-34.95-77.47-30.96-11.71-65.76,3.99-77.47,34.95-11.69,30.92,4.01,65.71,34.97,77.42Z"/><path class="cls-2" d="M826.71,247.2c-51.31,2.94-96.03,35.94-113.97,84.1l-42.25,113.43-87.66,235.34-6.86,18.42c-9.64,22.64-23.27,44.03-41.22,64.16-26.95,30.23-58.28,51.24-93.73,63.54-20.52,7.12-42.41,11.33-65.64,12.66-63.37,3.63-120.18-14.89-167.9-57.44-47.72-42.55-72.61-96.86-76.25-160.24-3.63-63.36,14.94-119.3,57.49-167.02,43.37-48.65,96.81-73.48,160.19-77.11,63.37-3.63,119.36,15.8,167.08,58.36,20.07,17.89,36.19,37.72,48.47,59.38l47.54-127.62c-6.1-6.13-12.41-12.17-19.08-18.04-71.59-63.83-154.32-93.93-250.67-88.41-96.36,5.52-175.97,44.92-238.93,116.46-63.83,71.59-93.87,155.17-88.4,250.66,5.52,96.36,44.87,175.1,116.46,238.93,71.59,63.83,154.32,93.92,250.67,88.4,3.79-.22,7.52-.53,11.25-.85,3.77-.32,7.5-.72,11.21-1.15-7.39.86-14.86,1.57-22.47,2,37.07-2.12,74.5-7.42,111.24-20.76,78.39-28.46,153.59-93.56,215.24-242.68,6.38-15.42,12.61-31.72,18.69-48.99l152.04-398.56-52.54,3.01Z"/><path class="cls-2" d="M1185.53,708.83c-.45-10.65-2.65-43.73-19.36-82.09-8.43-19.36-18.11-34.43-25.89-45.05-2.68-4.38-10.6-15.95-25.33-20.46-2.37-.73-6.38-1.76-11.66-1.76-21.75,0-39.38,17.63-39.38,39.38,0,.24.01.47.02.7-.2,3.67.12,7.24.98,10.68,1.65,6.59,5.27,11.75,7.53,14.63,1.92,2.45,2.37,2.48,4.96,5.74,1.83,2.31,3.72,4.98,5.99,8.75,5.69,9.43,11.16,18.32,15.23,28.83,1.94,5.02,8.29,22.38,8.91,46,.81,31.09-8.77,54.95-14.25,66.41-10.97,22.89-25.21,37.21-30.94,42.6-34.04,32.02-74.07,37.3-85.05,38.41-45.77,4.6-79.59-13.84-90.45-20.37-8.31-5.16-19.07-13.02-29.74-24.52-10.6-11.42-17.61-22.66-22.14-31.29-11.21,29.64-22.42,59.27-33.63,88.91,8.71,8.86,20.15,19.04,34.63,28.82,15.94,10.78,31.03,18.01,43.36,22.89,12.48,4.95,33.99,12.08,61.55,14.58,13.01,1.18,45.76,3,83.87-8.31,79.85-23.69,120.62-86.41,126.57-95.86,8.31-13.21,37.01-61.92,34.25-127.63Z"/><path class="cls-2" d="M931.91,494.56c-4.56-.04-8.72.84-16.28,2.43-1.23.26-5.01,1.07-11.01,2.74-10.54,2.92-18.43,5.82-20.19,6.48-7.44,2.77-19.48,7.68-33.47,15.55-14.03,7.88-23.86,15.27-26.56,17.33-7.72,5.89-25.59,20.36-43.04,43.89-14.31,19.3-22.19,36.39-24.99,42.77-4.22,9.62-5.3,14.06-13.44,35.8-5.47,14.61-10.16,26.44-13.28,34.18-32.73,86.22-65.46,172.45-98.19,258.67l34.81-2.13c34-2.08,63.55-24.07,75.31-56.03l27.55-74.88c31.36-80.56,52.91-136.96,59.87-158,1.07-3.22,3.89-11.96,9.99-22.37,8.26-14.11,17.85-23.27,23.47-28.58,9.72-9.16,18.67-15.13,24-18.4,10.84-6.65,21.53-10.83,27.9-13.39,3.82-1.53,6.66-2.55,13.93-5.51,9.29-3.78,13.94-5.67,16.41-6.91,11.06-5.56,25.02-21.03,23.54-39.63-.9-11.33-7.42-22.34-17.06-28.4-8.54-5.37-17.52-5.59-19.25-5.61Z"/></svg>